# Blender v3.0.1 OBJ File: 'Wedge1.blend'
# www.blender.org
mtllib Wedge1.mtl
o Plane
v -1.000000 -1.000000 1.000000
v 1.000000 -1.000000 1.000000
v -1.000000 -1.000000 -1.000000
v 1.000000 -1.000000 -1.000000
v 1.000000 1.000000 1.000000
v 1.000000 1.000000 -1.000000
vt 0.353553 0.353553
vt 0.353553 0.000000
vt 0.707107 0.000000
vt 0.707107 0.353553
vt 0.707107 0.353553
vt 0.707107 0.707107
vt 0.353553 0.707107
vt 0.353553 0.353553
vt 0.000000 0.000000
vt 0.353553 0.000000
vt 0.353553 0.500000
vt 0.000000 0.500000
vt 0.000000 0.750000
vt 0.250000 0.500000
vt 0.250000 1.000000
vt 0.707107 0.250000
vt 0.957107 0.000000
vt 0.957107 0.500000
vn 0.0000 -1.0000 0.0000
vn 1.0000 0.0000 0.0000
vn -0.7071 0.7071 0.0000
vn 0.0000 0.0000 -1.0000
vn 0.0000 0.0000 1.0000
usemtl None
s off
f 1/1/1 3/2/1 4/3/1 2/4/1
f 4/5/2 6/6/2 5/7/2 2/8/2
f 3/9/3 1/10/3 5/11/3 6/12/3
f 4/13/4 3/14/4 6/15/4
f 2/16/5 5/17/5 1/18/5
